<?xml version="1.0" standalone="no"?>
<!DOCTYPE svg PUBLIC "-//W3C//DTD SVG 20010904//EN"
 "http://www.w3.org/TR/2001/REC-SVG-20010904/DTD/svg10.dtd">
<svg version="1.0" xmlns="http://www.w3.org/2000/svg"
 width="800.000000pt" height="800.000000pt" viewBox="0 0 800.000000 800.000000"
 preserveAspectRatio="xMidYMid meet">

<g transform="translate(0.000000,800.000000) scale(0.100000,-0.100000)"
fill="#000000" stroke="none">
<path d="M3815 7494 c-16 -2 -70 -9 -120 -15 -125 -16 -330 -70 -469 -123
-645 -250 -1130 -800 -1301 -1474 -144 -571 -49 -1066 343 -1792 118 -219 218
-385 669 -1105 487 -779 741 -1281 906 -1790 65 -202 127 -463 143 -602 3 -35
10 -63 14 -63 4 0 11 26 15 58 17 148 83 421 148 622 125 381 267 690 556
1204 66 117 335 561 417 686 44 69 217 347 351 565 481 784 673 1314 649 1785
-30 579 -253 1069 -667 1465 -309 295 -697 487 -1134 561 -85 15 -453 27 -520
18z"/>
</g>
</svg>
